<svg width="199" height="33" viewBox="0 0 199 33" fill="none" xmlns="http://www.w3.org/2000/svg">
<path d="M2.60361 9.20272C2.16329 8.86936 1.53609 8.95606 1.20272 9.39639C0.869356 9.83671 0.956063 10.4639 1.39639 10.7973L2.60361 9.20272ZM197.903 10.4287C198.14 9.92976 197.928 9.33333 197.429 9.09656L189.298 5.23814C188.799 5.00137 188.202 5.21391 187.966 5.71287C187.729 6.21183 187.941 6.80825 188.44 7.04502L195.668 10.4747L192.238 17.7023C192.001 18.2012 192.214 18.7976 192.713 19.0344C193.212 19.2712 193.808 19.0586 194.045 18.5597L197.903 10.4287ZM3.4748 12.3186C3.92564 12.6376 4.54972 12.5307 4.86872 12.0799C5.18773 11.6291 5.08086 11.005 4.63003 10.686L3.4748 12.3186ZM9.68024 13.9825C9.20699 13.6978 8.59255 13.8506 8.30785 14.3239C8.02315 14.7971 8.176 15.4115 8.64924 15.6962L9.68024 13.9825ZM13.1366 18.2195C13.6256 18.4762 14.2301 18.2879 14.4868 17.7989C14.7436 17.3099 14.5553 16.7054 14.0663 16.4487L13.1366 18.2195ZM19.5003 19.0775C18.9957 18.853 18.4047 19.0801 18.1802 19.5847C17.9557 20.0893 18.1828 20.6804 18.6874 20.9049L19.5003 19.0775ZM23.4323 22.8733C23.9475 23.0722 24.5265 22.8158 24.7254 22.3006C24.9244 21.7854 24.668 21.2065 24.1528 21.0076L23.4323 22.8733ZM29.8609 23.0289C29.3354 22.8589 28.7716 23.1469 28.6015 23.6724C28.4314 24.1978 28.7195 24.7617 29.245 24.9317L29.8609 23.0289ZM34.1606 26.4068C34.6928 26.5544 35.2439 26.2426 35.3915 25.7104C35.5391 25.1782 35.2273 24.6271 34.6951 24.4795L34.1606 26.4068ZM40.5666 25.9586C40.0281 25.8361 39.4922 26.1733 39.3697 26.7118C39.2471 27.2503 39.5844 27.7862 40.1229 27.9087L40.5666 25.9586ZM45.1424 28.9553C45.685 29.0584 46.2084 28.7021 46.3115 28.1596C46.4146 27.617 46.0584 27.0936 45.5158 26.9904L45.1424 28.9553ZM51.5055 28.0043C50.9593 27.9228 50.4504 28.2995 50.3689 28.8458C50.2874 29.392 50.6641 29.9009 51.2103 29.9824L51.5055 28.0043ZM56.2782 30.6592C56.8267 30.7241 57.3239 30.3321 57.3888 29.7837C57.4537 29.2352 57.0616 28.738 56.5132 28.6731L56.2782 30.6592ZM62.556 29.2834C62.0057 29.237 61.522 29.6456 61.4756 30.1959C61.4293 30.7463 61.8378 31.23 62.3882 31.2763L62.556 29.2834ZM67.4968 31.6389C68.0481 31.6709 68.521 31.2499 68.553 30.6986C68.5851 30.1472 68.164 29.6743 67.6127 29.6423L67.4968 31.6389ZM73.6841 29.9054C73.132 29.8894 72.6715 30.3239 72.6555 30.876C72.6394 31.428 73.074 31.8885 73.626 31.9046L73.6841 29.9054ZM78.7369 31.9949C79.2892 31.9985 79.7398 31.5538 79.7435 31.0015C79.7471 30.4492 79.3023 29.9986 78.75 29.995L78.7369 31.9949ZM84.8345 29.9574C84.2823 29.9676 83.843 30.4236 83.8533 30.9758C83.8635 31.528 84.3195 31.9673 84.8717 31.957L84.8345 29.9574ZM89.9784 31.8114C90.5303 31.7903 90.9606 31.3258 90.9395 30.7739C90.9183 30.222 90.4538 29.7917 89.902 29.8128L89.9784 31.8114ZM95.9832 29.5122C95.4319 29.5455 95.012 30.0194 95.0453 30.5706C95.0786 31.1219 95.5525 31.5418 96.1038 31.5085L95.9832 29.5122ZM101.199 31.1559C101.75 31.1131 102.162 30.632 102.119 30.0814C102.076 29.5307 101.595 29.1191 101.044 29.162L101.199 31.1559ZM107.102 28.6301C106.552 28.6837 106.15 29.1728 106.204 29.7225C106.257 30.2722 106.746 30.6743 107.296 30.6206L107.102 28.6301ZM112.385 30.0837C112.933 30.0215 113.328 29.5262 113.266 28.9775C113.203 28.4287 112.708 28.0342 112.159 28.0964L112.385 30.0837ZM118.208 27.3563C117.66 27.4282 117.274 27.9304 117.346 28.478C117.418 29.0256 117.92 29.4112 118.468 29.3393L118.208 27.3563ZM123.511 28.6413C124.057 28.5617 124.436 28.0542 124.356 27.5077C124.277 26.9611 123.769 26.5826 123.223 26.6621L123.511 28.6413ZM129.249 25.7351C128.703 25.8234 128.333 26.337 128.421 26.8822C128.51 27.4274 129.023 27.7977 129.568 27.7094L129.249 25.7351ZM134.615 26.858C135.159 26.7627 135.522 26.2444 135.427 25.7004C135.332 25.1564 134.813 24.7927 134.269 24.8881L134.615 26.858ZM140.264 23.7908C139.721 23.8943 139.365 24.418 139.469 24.9605C139.572 25.503 140.096 25.8589 140.638 25.7554L140.264 23.7908ZM145.623 24.7738C146.165 24.6639 146.514 24.136 146.404 23.5948C146.294 23.0535 145.766 22.7039 145.225 22.8138L145.623 24.7738ZM151.186 21.5595C150.646 21.677 150.304 22.2097 150.421 22.7493C150.539 23.289 151.071 23.6312 151.611 23.5137L151.186 21.5595ZM156.615 22.3941C157.153 22.2705 157.489 21.7339 157.366 21.1956C157.242 20.6574 156.705 20.3213 156.167 20.4449L156.615 22.3941ZM162.103 19.0389C161.567 19.1698 161.238 19.7108 161.369 20.2474C161.5 20.7839 162.041 21.1128 162.577 20.9819L162.103 19.0389ZM167.535 19.743C168.07 19.6062 168.393 19.0615 168.256 18.5264C168.119 17.9913 167.574 17.6686 167.039 17.8054L167.535 19.743ZM172.936 16.255C172.402 16.399 172.087 16.948 172.231 17.4812C172.375 18.0144 172.924 18.3298 173.457 18.1858L172.936 16.255ZM178.379 16.8262C178.91 16.6761 179.219 16.1236 179.069 15.5921C178.919 15.0606 178.367 14.7514 177.835 14.9015L178.379 16.8262ZM183.652 13.2146C183.122 13.3722 182.821 13.9291 182.979 14.4584C183.136 14.9877 183.693 15.289 184.223 15.1314L183.652 13.2146ZM189.131 13.6347C189.659 13.47 189.952 12.9092 189.788 12.382C189.623 11.8549 189.062 11.561 188.535 11.7256L189.131 13.6347ZM194.36 9.84645C193.836 10.0217 193.554 10.5884 193.729 11.1121C193.904 11.6358 194.471 11.9183 194.995 11.7431L194.36 9.84645ZM1.39639 10.7973C2.08103 11.3156 2.77393 11.8227 3.4748 12.3186L4.63003 10.686C3.9465 10.2023 3.27095 9.70796 2.60361 9.20272L1.39639 10.7973ZM8.64924 15.6962C10.1168 16.5791 11.6132 17.4197 13.1366 18.2195L14.0663 16.4487C12.5763 15.6664 11.1136 14.8448 9.68024 13.9825L8.64924 15.6962ZM18.6874 20.9049C20.2461 21.5983 21.8284 22.254 23.4323 22.8733L24.1528 21.0076C22.579 20.3999 21.0276 19.7569 19.5003 19.0775L18.6874 20.9049ZM29.245 24.9317C30.8656 25.4563 32.5048 25.9475 34.1606 26.4068L34.6951 24.4795C33.0656 24.0276 31.4536 23.5445 29.8609 23.0289L29.245 24.9317ZM40.1229 27.9087C41.7826 28.2864 43.4564 28.6348 45.1424 28.9553L45.5158 26.9904C43.8525 26.6743 42.2022 26.3307 40.5666 25.9586L40.1229 27.9087ZM51.2103 29.9824C52.8903 30.2331 54.5801 30.4584 56.2782 30.6592L56.5132 28.6731C54.8346 28.4745 53.1648 28.2519 51.5055 28.0043L51.2103 29.9824ZM62.3882 31.2763C64.0853 31.4193 65.7887 31.5398 67.4968 31.6389L67.6127 29.6423C65.9214 29.5441 64.2353 29.4248 62.556 29.2834L62.3882 31.2763ZM73.626 31.9046C75.3274 31.954 77.0316 31.9837 78.7369 31.9949L78.75 29.995C77.0592 29.9839 75.37 29.9544 73.6841 29.9054L73.626 31.9046ZM84.8717 31.957C86.575 31.9253 88.2777 31.8764 89.9784 31.8114L89.902 29.8128C88.214 29.8774 86.5243 29.9259 84.8345 29.9574L84.8717 31.957ZM96.1038 31.5085C97.8067 31.4056 99.5057 31.2878 101.199 31.1559L101.044 29.162C99.3617 29.2929 97.6743 29.41 95.9832 29.5122L96.1038 31.5085ZM107.296 30.6206C109 30.4543 110.697 30.2749 112.385 30.0837L112.159 28.0964C110.482 28.2865 108.795 28.4648 107.102 28.6301L107.296 30.6206ZM118.468 29.3393C120.161 29.1171 121.842 28.884 123.511 28.6413L123.223 26.6621C121.563 26.9036 119.891 27.1354 118.208 27.3563L118.468 29.3393ZM129.568 27.7094C131.268 27.434 132.95 27.1498 134.615 26.858L134.269 24.8881C132.613 25.1784 130.939 25.4612 129.249 25.7351L129.568 27.7094ZM140.638 25.7554C142.323 25.4341 143.986 25.1064 145.623 24.7738L145.225 22.8138C143.595 23.1449 141.941 23.4711 140.264 23.7908L140.638 25.7554ZM151.611 23.5137C153.312 23.1434 154.981 22.7696 156.615 22.3941L156.167 20.4449C154.54 20.8187 152.879 21.1908 151.186 21.5595L151.611 23.5137ZM162.577 20.9819C164.278 20.567 165.931 20.1532 167.535 19.743L167.039 17.8054C165.443 18.2138 163.796 18.6258 162.103 19.0389L162.577 20.9819ZM173.457 18.1858C175.175 17.7218 176.817 17.2672 178.379 16.8262L177.835 14.9015C176.281 15.3405 174.646 15.793 172.936 16.255L173.457 18.1858ZM184.223 15.1314C186.027 14.5939 187.668 14.0916 189.131 13.6347L188.535 11.7256C187.08 12.18 185.447 12.6798 183.652 13.2146L184.223 15.1314ZM194.995 11.7431C195.756 11.4883 196.34 11.2885 196.734 11.1522C196.931 11.084 197.081 11.0317 197.182 10.9963C197.232 10.9786 197.27 10.9652 197.296 10.9561C197.309 10.9515 197.319 10.9481 197.325 10.9457C197.329 10.9445 197.331 10.9436 197.333 10.943C197.334 10.9427 197.334 10.9425 197.335 10.9423C197.335 10.9422 197.335 10.9421 197.335 10.9421C197.335 10.942 197.336 10.942 197.336 10.942C197.336 10.942 197.336 10.942 197.336 10.942C197.336 10.942 197.336 10.942 197 10C196.664 9.05803 196.664 9.05802 196.664 9.05802C196.664 9.05802 196.664 9.05801 196.664 9.05801C196.664 9.05802 196.664 9.05802 196.664 9.05803C196.664 9.05805 196.664 9.05809 196.664 9.05814C196.664 9.05825 196.663 9.05843 196.662 9.05867C196.661 9.05917 196.659 9.05994 196.656 9.06099C196.65 9.0631 196.641 9.0663 196.629 9.0706C196.605 9.07919 196.568 9.09214 196.519 9.10931C196.421 9.14366 196.275 9.19491 196.08 9.26201C195.692 9.39622 195.115 9.59383 194.36 9.84645L194.995 11.7431ZM3.20723 8.40545C2.32658 7.73871 1.07218 7.91213 0.405446 8.79277C-0.261287 9.67342 -0.0878748 10.9278 0.792773 11.5946L3.20723 8.40545ZM198.807 10.8574C199.28 9.85951 198.855 8.66666 197.857 8.19312L181.595 0.476283C180.598 0.00274012 179.405 0.427826 178.931 1.42574C178.458 2.42365 178.883 3.6165 179.881 4.09005L194.336 10.9495L187.476 25.4045C187.003 26.4024 187.428 27.5953 188.426 28.0688C189.424 28.5424 190.617 28.1173 191.09 27.1194L198.807 10.8574ZM2.89719 13.1349C3.79886 13.7729 5.04702 13.5592 5.68503 12.6575C6.32305 11.7558 6.10931 10.5077 5.20764 9.86966L2.89719 13.1349ZM10.1957 13.1256C9.24924 12.5562 8.02036 12.8619 7.45096 13.8084C6.88156 14.7549 7.18725 15.9837 8.13375 16.5531L10.1957 13.1256ZM12.6717 19.1048C13.6497 19.6183 14.8587 19.2417 15.3722 18.2638C15.8857 17.2858 15.5091 16.0768 14.5311 15.5633L12.6717 19.1048ZM19.9068 18.1639C18.8976 17.7149 17.7155 18.1691 17.2666 19.1783C16.8176 20.1875 17.2717 21.3696 18.281 21.8185L19.9068 18.1639ZM23.0721 23.8062C24.1025 24.204 25.2604 23.6913 25.6583 22.6609C26.0562 21.6304 25.5434 20.4726 24.513 20.0747L23.0721 23.8062ZM30.1688 22.0775C29.1179 21.7374 27.9902 22.3136 27.6501 23.3644C27.31 24.4153 27.8861 25.543 28.937 25.8831L30.1688 22.0775ZM33.8934 27.3704C34.9578 27.6656 36.0599 27.0421 36.3551 25.9777C36.6503 24.9133 36.0268 23.8111 34.9624 23.5159L33.8934 27.3704ZM40.7885 24.9835C39.7114 24.7384 38.6397 25.4129 38.3946 26.4899C38.1495 27.567 38.824 28.6388 39.901 28.8838L40.7885 24.9835ZM44.9557 29.9377C46.0408 30.1439 47.0877 29.4314 47.2939 28.3463C47.5002 27.2611 46.7877 26.2143 45.7025 26.008L44.9557 29.9377ZM51.6531 27.0153C50.5607 26.8522 49.5429 27.6057 49.3798 28.6982C49.2168 29.7906 49.9703 30.8084 51.0627 30.9715L51.6531 27.0153ZM56.1607 31.6523C57.2577 31.7821 58.2521 30.9981 58.3818 29.9011C58.5116 28.8042 57.7276 27.8098 56.6307 27.68L56.1607 31.6523ZM62.6399 28.2869C61.5393 28.1942 60.5719 29.0113 60.4791 30.112C60.3864 31.2127 61.2036 32.1801 62.3042 32.2728L62.6399 28.2869ZM67.4388 32.6372C68.5415 32.7013 69.4873 31.8592 69.5514 30.7565C69.6154 29.6538 68.7733 28.708 67.6706 28.644L67.4388 32.6372ZM73.7131 28.9058C72.609 28.8738 71.688 29.7429 71.6559 30.847C71.6238 31.9511 72.4929 32.8721 73.597 32.9042L73.7131 28.9058ZM78.7304 32.9949C79.8349 33.0021 80.7362 32.1126 80.7434 31.0081C80.7507 29.9035 79.8612 29.0022 78.7566 28.995L78.7304 32.9949ZM84.8159 28.9575C83.7115 28.9781 82.8329 29.89 82.8534 30.9944C82.874 32.0988 83.7859 32.9774 84.8903 32.9568L84.8159 28.9575ZM90.0166 32.8106C91.1204 32.7684 91.9809 31.8394 91.9387 30.7357C91.8965 29.6319 90.9675 28.7714 89.8638 28.8136L90.0166 32.8106ZM95.9229 28.514C94.8203 28.5806 93.9805 29.5284 94.0471 30.6309C94.1137 31.7335 95.0615 32.5733 96.1641 32.5067L95.9229 28.514ZM101.277 32.1529C102.378 32.0672 103.201 31.105 103.116 30.0038C103.03 28.9025 102.068 28.0793 100.966 28.165L101.277 32.1529ZM107.005 27.6348C105.905 27.7421 105.101 28.7203 105.208 29.8196C105.316 30.919 106.294 31.7232 107.393 31.6159L107.005 27.6348ZM112.497 31.0773C113.595 30.953 114.384 29.9624 114.259 28.8649C114.135 27.7673 113.144 26.9784 112.047 27.1028L112.497 31.0773ZM118.078 26.3648C116.982 26.5086 116.211 27.513 116.355 28.6081C116.499 29.7033 117.503 30.4746 118.598 30.3308L118.078 26.3648ZM123.655 29.6308C124.748 29.4718 125.505 28.4567 125.346 27.3637C125.187 26.2706 124.172 25.5135 123.079 25.6725L123.655 29.6308ZM129.089 24.748C127.998 24.9247 127.258 25.9518 127.434 27.0421C127.611 28.1325 128.638 28.8732 129.728 28.6965L129.089 24.748ZM134.787 27.843C135.875 27.6523 136.603 26.6157 136.412 25.5277C136.221 24.4397 135.185 23.7124 134.097 23.9031L134.787 27.843ZM140.076 22.8085C138.991 23.0155 138.28 24.0628 138.487 25.1478C138.693 26.2328 139.741 26.9447 140.826 26.7377L140.076 22.8085ZM145.822 25.7538C146.905 25.5339 147.604 24.4782 147.384 23.3957C147.164 22.3132 146.109 21.614 145.026 21.8338L145.822 25.7538ZM150.973 20.5824C149.894 20.8174 149.209 21.8828 149.444 22.9621C149.679 24.0414 150.745 24.7258 151.824 24.4908L150.973 20.5824ZM156.839 23.3688C157.915 23.1214 158.588 22.0482 158.34 20.9717C158.093 19.8952 157.02 19.223 155.943 19.4703L156.839 23.3688ZM161.866 18.0674C160.793 18.3292 160.136 19.4113 160.397 20.4844C160.659 21.5575 161.741 22.2152 162.814 21.9534L161.866 18.0674ZM167.783 20.7118C168.853 20.4381 169.498 19.3487 169.225 18.2786C168.951 17.2085 167.862 16.5629 166.791 16.8366L167.783 20.7118ZM172.675 15.2896C171.608 15.5777 170.977 16.6756 171.266 17.742C171.554 18.8083 172.652 19.4392 173.718 19.1512L172.675 15.2896ZM178.65 17.7886C179.713 17.4884 180.332 16.3833 180.032 15.3203C179.731 14.2573 178.626 13.639 177.563 13.9392L178.65 17.7886ZM183.366 12.2562C182.308 12.5715 181.705 13.6853 182.02 14.7439C182.336 15.8025 183.449 16.4051 184.508 16.0898L183.366 12.2562ZM189.429 14.5892C190.484 14.26 191.072 13.1383 190.742 12.084C190.413 11.0296 189.292 10.4418 188.237 10.771L189.429 14.5892ZM194.043 8.89814C192.995 9.24866 192.43 10.382 192.781 11.4294C193.131 12.4769 194.264 13.0419 195.312 12.6914L194.043 8.89814ZM0.792773 11.5946C1.48608 12.1195 2.18764 12.6328 2.89719 13.1349L5.20764 9.86966C4.53278 9.39214 3.8659 8.90412 3.20723 8.40545L0.792773 11.5946ZM8.13375 16.5531C9.61832 17.4462 11.1317 18.2963 12.6717 19.1048L14.5311 15.5633C13.0578 14.7897 11.6121 13.9776 10.1957 13.1256L8.13375 16.5531ZM18.281 21.8185C19.8554 22.5189 21.4531 23.181 23.0721 23.8062L24.513 20.0747C22.9543 19.4728 21.4183 18.8363 19.9068 18.1639L18.281 21.8185ZM28.937 25.8831C30.5716 26.4122 32.2243 26.9075 33.8934 27.3704L34.9624 23.5159C33.3461 23.0676 31.7476 22.5886 30.1688 22.0775L28.937 25.8831ZM39.901 28.8838C41.5728 29.2642 43.2583 29.6151 44.9557 29.9377L45.7025 26.008C44.0506 25.6941 42.412 25.3529 40.7885 24.9835L39.901 28.8838ZM51.0627 30.9715C52.753 31.2237 54.4529 31.4503 56.1607 31.6523L56.6307 27.68C54.9618 27.4826 53.3021 27.2614 51.6531 27.0153L51.0627 30.9715ZM62.3042 32.2728C64.0103 32.4165 65.7224 32.5376 67.4388 32.6372L67.6706 28.644C65.9878 28.5463 64.3103 28.4276 62.6399 28.2869L62.3042 32.2728ZM73.597 32.9042C75.3061 32.9538 77.0177 32.9837 78.7304 32.9949L78.7566 28.995C77.073 28.9839 75.3913 28.9546 73.7131 28.9058L73.597 32.9042ZM84.8903 32.9568C86.6003 32.925 88.3096 32.8759 90.0166 32.8106L89.8638 28.8136C88.1821 28.8779 86.499 28.9262 84.8159 28.9575L84.8903 32.9568ZM96.1641 32.5067C97.873 32.4035 99.5777 32.2852 101.277 32.1529L100.966 28.165C99.2897 28.2955 97.608 28.4122 95.9229 28.514L96.1641 32.5067ZM107.393 31.6159C109.103 31.449 110.805 31.2691 112.497 31.0773L112.047 27.1028C110.374 27.2923 108.693 27.47 107.005 27.6348L107.393 31.6159ZM118.598 30.3308C120.296 30.108 121.982 29.8743 123.655 29.6308L123.079 25.6725C121.424 25.9133 119.756 26.1445 118.078 26.3648L118.598 30.3308ZM129.728 28.6965C131.432 28.4205 133.119 28.1355 134.787 27.843L134.097 23.9031C132.445 24.1927 130.775 24.4748 129.089 24.748L129.728 28.6965ZM140.826 26.7377C142.515 26.4157 144.181 26.0872 145.822 25.7538L145.026 21.8338C143.4 22.1641 141.749 22.4895 140.076 22.8085L140.826 26.7377ZM151.824 24.4908C153.529 24.1197 155.201 23.745 156.839 23.3688L155.943 19.4703C154.32 19.8432 152.662 20.2146 150.973 20.5824L151.824 24.4908ZM162.814 21.9534C164.518 21.5376 166.176 21.1229 167.783 20.7118L166.791 16.8366C165.198 17.2441 163.555 17.6552 161.866 18.0674L162.814 21.9534ZM173.718 19.1512C175.439 18.6861 177.086 18.2306 178.65 17.7886L177.563 13.9392C176.013 14.3771 174.381 14.8286 172.675 15.2896L173.718 19.1512ZM184.508 16.0898C186.317 15.551 187.962 15.0474 189.429 14.5892L188.237 10.771C186.786 11.2242 185.157 11.7227 183.366 12.2562L184.508 16.0898ZM195.312 12.6914C196.077 12.4355 196.664 12.2346 197.061 12.0973C197.26 12.0286 197.411 11.9757 197.513 11.9398C197.564 11.9219 197.603 11.9082 197.629 11.8988C197.643 11.8941 197.653 11.8905 197.66 11.8881C197.663 11.8868 197.666 11.8859 197.668 11.8852C197.669 11.8848 197.67 11.8846 197.67 11.8844C197.671 11.8842 197.671 11.8842 197.671 11.8841C197.671 11.8841 197.671 11.884 197.671 11.884C197.671 11.884 197.671 11.884 197.671 11.884C197.671 11.884 197.671 11.8839 197 10C196.329 8.11605 196.329 8.11604 196.329 8.11603C196.329 8.11603 196.329 8.11602 196.329 8.11602C196.329 8.11601 196.329 8.11601 196.329 8.11601C196.329 8.11601 196.329 8.11603 196.329 8.11607C196.328 8.11615 196.328 8.11629 196.327 8.11651C196.326 8.11694 196.324 8.11765 196.321 8.11864C196.316 8.12061 196.307 8.12369 196.295 8.12786C196.272 8.13619 196.236 8.14888 196.188 8.1658C196.091 8.19963 195.946 8.25036 195.754 8.31693C195.369 8.45008 194.794 8.64662 194.043 8.89814L195.312 12.6914Z" fill="#00327C"/>
</svg>
